<svg id="mermaid-c89b1420-bbc8-4efd-b8eb-e672cbdb820e" width="218.25" xmlns="http://www.w3.org/2000/svg" class="flowchart" style="max-width: 154.25px;" viewBox="-28 -28 218.25 468.375" role="graphics-document document" aria-roledescription="flowchart-v2" height="468.375"><rect x="-28" y="-28" width="218.25" height="468.375" fill="#191919"/><style>#mermaid-c89b1420-bbc8-4efd-b8eb-e672cbdb820e{font-family:ui-sans-serif,-apple-system,BlinkMacSystemFont,"Segoe UI Variable Display","Segoe UI",Helvetica,"Apple Color Emoji",Arial,sans-serif,"Segoe UI Emoji","Segoe UI Symbol";font-size:16px;fill:#ccc;}@keyframes edge-animation-frame{from{stroke-dashoffset:0;}}@keyframes dash{to{stroke-dashoffset:0;}}#mermaid-c89b1420-bbc8-4efd-b8eb-e672cbdb820e .edge-animation-slow{stroke-dasharray:9,5!important;stroke-dashoffset:900;animation:dash 50s linear infinite;stroke-linecap:round;}#mermaid-c89b1420-bbc8-4efd-b8eb-e672cbdb820e .edge-animation-fast{stroke-dasharray:9,5!important;stroke-dashoffset:900;animation:dash 20s linear infinite;stroke-linecap:round;}#mermaid-c89b1420-bbc8-4efd-b8eb-e672cbdb820e .error-icon{fill:#a44141;}#mermaid-c89b1420-bbc8-4efd-b8eb-e672cbdb820e .error-text{fill:#ddd;stroke:#ddd;}#mermaid-c89b1420-bbc8-4efd-b8eb-e672cbdb820e .edge-thickness-normal{stroke-width:1px;}#mermaid-c89b1420-bbc8-4efd-b8eb-e672cbdb820e .edge-thickness-thick{stroke-width:3.5px;}#mermaid-c89b1420-bbc8-4efd-b8eb-e672cbdb820e .edge-pattern-solid{stroke-dasharray:0;}#mermaid-c89b1420-bbc8-4efd-b8eb-e672cbdb820e .edge-thickness-invisible{stroke-width:0;fill:none;}#mermaid-c89b1420-bbc8-4efd-b8eb-e672cbdb820e .edge-pattern-dashed{stroke-dasharray:3;}#mermaid-c89b1420-bbc8-4efd-b8eb-e672cbdb820e .edge-pattern-dotted{stroke-dasharray:2;}#mermaid-c89b1420-bbc8-4efd-b8eb-e672cbdb820e .marker{fill:lightgrey;stroke:lightgrey;}#mermaid-c89b1420-bbc8-4efd-b8eb-e672cbdb820e .marker.cross{stroke:lightgrey;}#mermaid-c89b1420-bbc8-4efd-b8eb-e672cbdb820e svg{font-family:ui-sans-serif,-apple-system,BlinkMacSystemFont,"Segoe UI Variable Display","Segoe UI",Helvetica,"Apple Color Emoji",Arial,sans-serif,"Segoe UI Emoji","Segoe UI Symbol";font-size:16px;}#mermaid-c89b1420-bbc8-4efd-b8eb-e672cbdb820e p{margin:0;}#mermaid-c89b1420-bbc8-4efd-b8eb-e672cbdb820e .label{font-family:ui-sans-serif,-apple-system,BlinkMacSystemFont,"Segoe UI Variable Display","Segoe UI",Helvetica,"Apple Color Emoji",Arial,sans-serif,"Segoe UI Emoji","Segoe UI Symbol";color:#ccc;}#mermaid-c89b1420-bbc8-4efd-b8eb-e672cbdb820e .cluster-label text{fill:#F9FFFE;}#mermaid-c89b1420-bbc8-4efd-b8eb-e672cbdb820e .cluster-label span{color:#F9FFFE;}#mermaid-c89b1420-bbc8-4efd-b8eb-e672cbdb820e .cluster-label span p{background-color:transparent;}#mermaid-c89b1420-bbc8-4efd-b8eb-e672cbdb820e .label text,#mermaid-c89b1420-bbc8-4efd-b8eb-e672cbdb820e span{fill:#ccc;color:#ccc;}#mermaid-c89b1420-bbc8-4efd-b8eb-e672cbdb820e .node rect,#mermaid-c89b1420-bbc8-4efd-b8eb-e672cbdb820e .node circle,#mermaid-c89b1420-bbc8-4efd-b8eb-e672cbdb820e .node ellipse,#mermaid-c89b1420-bbc8-4efd-b8eb-e672cbdb820e .node polygon,#mermaid-c89b1420-bbc8-4efd-b8eb-e672cbdb820e .node path{fill:#1f2020;stroke:#ccc;stroke-width:1px;}#mermaid-c89b1420-bbc8-4efd-b8eb-e672cbdb820e .rough-node .label text,#mermaid-c89b1420-bbc8-4efd-b8eb-e672cbdb820e .node .label text,#mermaid-c89b1420-bbc8-4efd-b8eb-e672cbdb820e .image-shape .label,#mermaid-c89b1420-bbc8-4efd-b8eb-e672cbdb820e .icon-shape .label{text-anchor:middle;}#mermaid-c89b1420-bbc8-4efd-b8eb-e672cbdb820e .node .katex path{fill:#000;stroke:#000;stroke-width:1px;}#mermaid-c89b1420-bbc8-4efd-b8eb-e672cbdb820e .rough-node .label,#mermaid-c89b1420-bbc8-4efd-b8eb-e672cbdb820e .node .label,#mermaid-c89b1420-bbc8-4efd-b8eb-e672cbdb820e .image-shape .label,#mermaid-c89b1420-bbc8-4efd-b8eb-e672cbdb820e .icon-shape .label{text-align:center;}#mermaid-c89b1420-bbc8-4efd-b8eb-e672cbdb820e .node.clickable{cursor:pointer;}#mermaid-c89b1420-bbc8-4efd-b8eb-e672cbdb820e .root .anchor path{fill:lightgrey!important;stroke-width:0;stroke:lightgrey;}#mermaid-c89b1420-bbc8-4efd-b8eb-e672cbdb820e .arrowheadPath{fill:lightgrey;}#mermaid-c89b1420-bbc8-4efd-b8eb-e672cbdb820e .edgePath .path{stroke:lightgrey;stroke-width:2.0px;}#mermaid-c89b1420-bbc8-4efd-b8eb-e672cbdb820e .flowchart-link{stroke:lightgrey;fill:none;}#mermaid-c89b1420-bbc8-4efd-b8eb-e672cbdb820e .edgeLabel{background-color:hsl(0, 0%, 34.4117647059%);text-align:center;}#mermaid-c89b1420-bbc8-4efd-b8eb-e672cbdb820e .edgeLabel p{background-color:hsl(0, 0%, 34.4117647059%);}#mermaid-c89b1420-bbc8-4efd-b8eb-e672cbdb820e .edgeLabel rect{opacity:0.5;background-color:hsl(0, 0%, 34.4117647059%);fill:hsl(0, 0%, 34.4117647059%);}#mermaid-c89b1420-bbc8-4efd-b8eb-e672cbdb820e .labelBkg{background-color:rgba(87.75, 87.75, 87.75, 0.5);}#mermaid-c89b1420-bbc8-4efd-b8eb-e672cbdb820e .cluster rect{fill:hsl(180, 1.5873015873%, 28.3529411765%);stroke:rgba(255, 255, 255, 0.25);stroke-width:1px;}#mermaid-c89b1420-bbc8-4efd-b8eb-e672cbdb820e .cluster text{fill:#F9FFFE;}#mermaid-c89b1420-bbc8-4efd-b8eb-e672cbdb820e .cluster span{color:#F9FFFE;}#mermaid-c89b1420-bbc8-4efd-b8eb-e672cbdb820e div.mermaidTooltip{position:absolute;text-align:center;max-width:200px;padding:2px;font-family:ui-sans-serif,-apple-system,BlinkMacSystemFont,"Segoe UI Variable Display","Segoe UI",Helvetica,"Apple Color Emoji",Arial,sans-serif,"Segoe UI Emoji","Segoe UI Symbol";font-size:12px;background:hsl(20, 1.5873015873%, 12.3529411765%);border:1px solid rgba(255, 255, 255, 0.25);border-radius:2px;pointer-events:none;z-index:100;}#mermaid-c89b1420-bbc8-4efd-b8eb-e672cbdb820e .flowchartTitleText{text-anchor:middle;font-size:18px;fill:#ccc;}#mermaid-c89b1420-bbc8-4efd-b8eb-e672cbdb820e rect.text{fill:none;stroke-width:0;}#mermaid-c89b1420-bbc8-4efd-b8eb-e672cbdb820e .icon-shape,#mermaid-c89b1420-bbc8-4efd-b8eb-e672cbdb820e .image-shape{background-color:hsl(0, 0%, 34.4117647059%);text-align:center;}#mermaid-c89b1420-bbc8-4efd-b8eb-e672cbdb820e .icon-shape p,#mermaid-c89b1420-bbc8-4efd-b8eb-e672cbdb820e .image-shape p{background-color:hsl(0, 0%, 34.4117647059%);padding:2px;}#mermaid-c89b1420-bbc8-4efd-b8eb-e672cbdb820e .icon-shape rect,#mermaid-c89b1420-bbc8-4efd-b8eb-e672cbdb820e .image-shape rect{opacity:0.5;background-color:hsl(0, 0%, 34.4117647059%);fill:hsl(0, 0%, 34.4117647059%);}#mermaid-c89b1420-bbc8-4efd-b8eb-e672cbdb820e .label-icon{display:inline-block;height:1em;overflow:visible;vertical-align:-0.125em;}#mermaid-c89b1420-bbc8-4efd-b8eb-e672cbdb820e .node .label-icon path{fill:currentColor;stroke:revert;stroke-width:revert;}#mermaid-c89b1420-bbc8-4efd-b8eb-e672cbdb820e :root{--mermaid-font-family:"trebuchet ms",verdana,arial,sans-serif;}</style><g><marker id="mermaid-c89b1420-bbc8-4efd-b8eb-e672cbdb820e_flowchart-v2-pointEnd" class="marker flowchart-v2" viewBox="0 0 10 10" refX="5" refY="5" markerUnits="userSpaceOnUse" markerWidth="8" markerHeight="8" orient="auto"><path d="M 0 0 L 10 5 L 0 10 z" class="arrowMarkerPath" style="stroke-width: 1; stroke-dasharray: 1, 0;"/></marker><marker id="mermaid-c89b1420-bbc8-4efd-b8eb-e672cbdb820e_flowchart-v2-pointStart" class="marker flowchart-v2" viewBox="0 0 10 10" refX="4.5" refY="5" markerUnits="userSpaceOnUse" markerWidth="8" markerHeight="8" orient="auto"><path d="M 0 5 L 10 10 L 10 0 z" class="arrowMarkerPath" style="stroke-width: 1; stroke-dasharray: 1, 0;"/></marker><marker id="mermaid-c89b1420-bbc8-4efd-b8eb-e672cbdb820e_flowchart-v2-circleEnd" class="marker flowchart-v2" viewBox="0 0 10 10" refX="11" refY="5" markerUnits="userSpaceOnUse" markerWidth="11" markerHeight="11" orient="auto"><circle cx="5" cy="5" r="5" class="arrowMarkerPath" style="stroke-width: 1; stroke-dasharray: 1, 0;"/></marker><marker id="mermaid-c89b1420-bbc8-4efd-b8eb-e672cbdb820e_flowchart-v2-circleStart" class="marker flowchart-v2" viewBox="0 0 10 10" refX="-1" refY="5" markerUnits="userSpaceOnUse" markerWidth="11" markerHeight="11" orient="auto"><circle cx="5" cy="5" r="5" class="arrowMarkerPath" style="stroke-width: 1; stroke-dasharray: 1, 0;"/></marker><marker id="mermaid-c89b1420-bbc8-4efd-b8eb-e672cbdb820e_flowchart-v2-crossEnd" class="marker cross flowchart-v2" viewBox="0 0 11 11" refX="12" refY="5.2" markerUnits="userSpaceOnUse" markerWidth="11" markerHeight="11" orient="auto"><path d="M 1,1 l 9,9 M 10,1 l -9,9" class="arrowMarkerPath" style="stroke-width: 2; stroke-dasharray: 1, 0;"/></marker><marker id="mermaid-c89b1420-bbc8-4efd-b8eb-e672cbdb820e_flowchart-v2-crossStart" class="marker cross flowchart-v2" viewBox="0 0 11 11" refX="-1" refY="5.2" markerUnits="userSpaceOnUse" markerWidth="11" markerHeight="11" orient="auto"><path d="M 1,1 l 9,9 M 10,1 l -9,9" class="arrowMarkerPath" style="stroke-width: 2; stroke-dasharray: 1, 0;"/></marker></g><g class="subgraphs"/><g class="nodes"><g class="node default" id="flowchart-A-0" transform="translate(81.125, 39)"><g class="basic label-container outer-path"><path d="M-29.024999618530273 -27 C-11.20904704907933 -27, 6.606905520371612 -27, 29.024999618530273 -27 C29.024999618530273 -27, 29.024999618530273 -27, 29.024999618530273 -27 C29.16238332778174 -26.99431776775374, 29.299767037033206 -26.988635535507477, 29.437896345891936 -26.982922465033347 C29.525708478466314 -26.971976694122926, 29.613520611040688 -26.96103092321251, 29.847972569933944 -26.931806517013612 C29.991449733852622 -26.901722519347278, 30.1349268977713 -26.871638521680943, 30.25242705423427 -26.847001329696653 C30.353140547451712 -26.81701762366613, 30.453854040669157 -26.787033917635604, 30.64849696455369 -26.729086208503173 C30.762709968636123 -26.68452015601672, 30.87692297271856 -26.63995410353027, 31.03347674179512 -26.578866633275286 C31.148849380099545 -26.522464387247712, 31.26422201840397 -26.46606214122014, 31.404736583715643 -26.397368756032446 C31.543746189199418 -26.31453701029049, 31.682755794683192 -26.231705264548534, 31.75974040914241 -26.185832391312644 C31.87435094533278 -26.104002041312967, 31.988961481523148 -26.02217169131329, 32.096063181978614 -25.94570254698197 C32.21515664136617 -25.844835532135257, 32.33425010075373 -25.74396851728854, 32.41140747665898 -25.678619553365657 C32.49583797552908 -25.59418905449556, 32.580268474399176 -25.50975855562546, 32.70361917189593 -25.386407858128706 C32.77945524714499 -25.296868373278176, 32.85529132239405 -25.20732888842765, 32.97070216551224 -25.07106356344834 C33.04814475481958 -24.962598468474166, 33.12558734412693 -24.85413337349999, 33.21083200984292 -24.734740790612136 C33.27851374316679 -24.621156186502507, 33.346195476490664 -24.50757158239288, 33.42236837456272 -24.37973696518537 C33.483799056973865 -24.25407849585509, 33.54522973938501 -24.12842002652481, 33.60386625180556 -24.008477123264846 C33.63880187560335 -23.91894479269435, 33.673737499401135 -23.82941246212386, 33.75408582703345 -23.623497346023417 C33.78609580752478 -23.515977716868093, 33.81810578801611 -23.408458087712766, 33.872000948226926 -23.227427435703994 C33.889009319386254 -23.146310794096646, 33.90601769054558 -23.065194152489298, 33.956806135543886 -22.82297295140367 C33.97672563759299 -22.663169318652088, 33.9966451396421 -22.50336568590051, 34.00792208356362 -22.412896727361662 C34.01379856961055 -22.27081639422806, 34.01967505565747 -22.128736061094457, 34.02499961853027 -22 C34.02499961853027 -22, 34.02499961853027 -22, 34.02499961853027 -22 C34.02499961853027 -11.652361012284555, 34.02499961853027 -1.3047220245691094, 34.02499961853027 22 C34.02499961853027 22, 34.02499961853027 22, 34.02499961853027 22 C34.020287013304184 22.11394028933337, 34.01557440807809 22.22788057866674, 34.00792208356362 22.412896727361662 C33.98932798699981 22.562067332696362, 33.970733890435994 22.711237938031065, 33.956806135543886 22.82297295140367 C33.92484487974715 22.97540316988249, 33.892883623950404 23.12783338836131, 33.872000948226926 23.227427435703994 C33.830295257777976 23.367514380522728, 33.788589567329026 23.507601325341458, 33.75408582703345 23.623497346023417 C33.702352360496896 23.75607885807307, 33.65061889396034 23.88866037012272, 33.60386625180556 24.008477123264846 C33.53846576195408 24.14225596350604, 33.4730652721026 24.276034803747233, 33.42236837456272 24.379736965185366 C33.3778835169721 24.454392188835225, 33.33339865938148 24.529047412485088, 33.21083200984292 24.734740790612133 C33.13466947074853 24.841413063714505, 33.05850693165414 24.948085336816877, 32.97070216551224 25.07106356344834 C32.90893090538195 25.143996752467807, 32.847159645251665 25.216929941487276, 32.70361917189593 25.386407858128706 C32.606894689673574 25.483132340351066, 32.51017020745121 25.579856822573426, 32.41140747665898 25.678619553365657 C32.34454123373371 25.73525237226748, 32.27767499080844 25.791885191169303, 32.096063181978614 25.94570254698197 C31.996758565919496 26.0166046800564, 31.897453949860378 26.087506813130826, 31.75974040914241 26.185832391312644 C31.62082923856232 26.268605482583308, 31.481918067982225 26.351378573853975, 31.404736583715643 26.397368756032446 C31.313812778028232 26.44181869610067, 31.222888972340822 26.486268636168894, 31.03347674179512 26.578866633275286 C30.940887346505036 26.61499512742827, 30.848297951214953 26.65112362158125, 30.64849696455369 26.729086208503173 C30.539505530788432 26.761534364211634, 30.430514097023174 26.7939825199201, 30.25242705423427 26.847001329696653 C30.14402633272544 26.86973057080954, 30.035625611216602 26.892459811922425, 29.847972569933944 26.931806517013612 C29.73275870594523 26.946167910182794, 29.617544841956512 26.960529303351972, 29.437896345891936 26.982922465033347 C29.322056755005384 26.987713625952757, 29.206217164118833 26.992504786872168, 29.024999618530273 27 C29.024999618530273 27, 29.024999618530273 27, 29.024999618530273 27 C10.988529975098725 27, -7.047939668332823 27, -29.024999618530273 27 C-29.024999618530273 27, -29.024999618530273 27, -29.024999618530273 27 C-29.165096699733677 26.994205541859667, -29.30519378093708 26.98841108371934, -29.437896345891936 26.982922465033347 C-29.550009225368655 26.968947609180482, -29.662122104845373 26.954972753327613, -29.847972569933944 26.931806517013612 C-29.9710962447928 26.905990197217776, -30.094219919651653 26.88017387742194, -30.252427054234268 26.847001329696653 C-30.3668334658683 26.812941065229055, -30.48123987750233 26.778880800761453, -30.64849696455369 26.729086208503173 C-30.737134143802127 26.694499873835134, -30.825771323050567 26.6599135391671, -31.03347674179512 26.578866633275286 C-31.179036071899894 26.507707012858916, -31.32459540200467 26.43654739244254, -31.404736583715643 26.397368756032446 C-31.54401348535729 26.31437773635176, -31.683290386998934 26.231386716671075, -31.759740409142406 26.185832391312644 C-31.831427333329422 26.134648911227707, -31.903114257516435 26.08346543114277, -32.096063181978614 25.94570254698197 C-32.200871224004814 25.85693466346026, -32.305679266031014 25.768166779938557, -32.41140747665898 25.67861955336566 C-32.50565139736507 25.58437563265957, -32.59989531807116 25.490131711953474, -32.70361917189593 25.386407858128706 C-32.78115170519466 25.294865369043862, -32.85868423849338 25.203322879959018, -32.97070216551224 25.07106356344834 C-33.055681146939115 24.952043094560164, -33.14066012836599 24.833022625671987, -33.21083200984292 24.734740790612133 C-33.26199662595498 24.64887548574915, -33.31316124206703 24.56301018088617, -33.422368374562716 24.37973696518537 C-33.46995706787817 24.28239273711013, -33.517545761193624 24.185048509034885, -33.603866251805556 24.00847712326485 C-33.65730461064985 23.8715263466912, -33.71074296949414 23.734575570117553, -33.75408582703345 23.623497346023417 C-33.78932557893794 23.50512910592647, -33.82456533084243 23.386760865829523, -33.872000948226926 23.227427435703994 C-33.889851067449264 23.14229631350286, -33.9077011866716 23.057165191301724, -33.956806135543886 22.82297295140367 C-33.968452526269864 22.72954011649306, -33.98009891699584 22.636107281582444, -34.00792208356362 22.412896727361662 C-34.01330178898451 22.2828274423745, -34.018681494405406 22.15275815738734, -34.02499961853027 22 C-34.02499961853027 22, -34.02499961853027 22, -34.02499961853027 22 C-34.02499961853027 13.032924986307016, -34.02499961853027 4.065849972614032, -34.02499961853027 -22 C-34.02499961853027 -22, -34.02499961853027 -22, -34.02499961853027 -22 C-34.01984678586986 -22.124584007368785, -34.01469395320945 -22.249168014737567, -34.00792208356362 -22.41289672736166 C-33.990488906273676 -22.552753891183688, -33.97305572898374 -22.69261105500572, -33.956806135543886 -22.82297295140367 C-33.923935918895864 -22.97973820296224, -33.89106570224784 -23.136503454520806, -33.872000948226926 -23.227427435703994 C-33.82888523957961 -23.372250548163674, -33.7857695309323 -23.517073660623353, -33.75408582703345 -23.623497346023417 C-33.70493412795188 -23.74946235514259, -33.65578242887032 -23.875427364261764, -33.60386625180556 -24.008477123264846 C-33.564932142793964 -24.088118116187434, -33.525998033782365 -24.167759109110026, -33.42236837456272 -24.379736965185366 C-33.342171146923405 -24.514325278822547, -33.261973919284095 -24.648913592459728, -33.21083200984292 -24.734740790612133 C-33.14864294440774 -24.821841996151782, -33.08645387897257 -24.908943201691432, -32.97070216551224 -25.07106356344834 C-32.91112105217896 -25.14141085103096, -32.85153993884568 -25.211758138613586, -32.70361917189593 -25.386407858128706 C-32.61190137605955 -25.478125653965087, -32.52018358022317 -25.569843449801468, -32.41140747665898 -25.678619553365657 C-32.295991036402846 -25.77637229186816, -32.18057459614671 -25.874125030370664, -32.096063181978614 -25.945702546981966 C-32.00983568355719 -26.00726779752491, -31.923608185135773 -26.06883304806786, -31.75974040914241 -26.185832391312644 C-31.677462386304345 -26.234859451307205, -31.595184363466284 -26.283886511301766, -31.40473658371564 -26.397368756032446 C-31.324237692644907 -26.436722265892715, -31.24373880157417 -26.47607577575298, -31.033476741795123 -26.578866633275286 C-30.89246655925625 -26.633888977242492, -30.75145637671737 -26.6889113212097, -30.648496964553694 -26.729086208503173 C-30.490841757491868 -26.77602219723427, -30.333186550430042 -26.822958185965362, -30.252427054234268 -26.847001329696653 C-30.14170366642411 -26.87021758271917, -30.030980278613956 -26.89343383574169, -29.847972569933948 -26.931806517013612 C-29.754089286281303 -26.94350905611673, -29.66020600262866 -26.955211595219847, -29.437896345891936 -26.982922465033347 C-29.33026355345454 -26.987374190258087, -29.222630761017147 -26.991825915482824, -29.024999618530273 -27 C-29.024999618530273 -27, -29.024999618530273 -27, -29.024999618530273 -27" stroke="none" stroke-width="0" fill="#1f2020" style=""/><path d="M-29.024999618530273 -27 C-16.347246929310394 -27, -3.6694942400905184 -27, 29.024999618530273 -27 M-29.024999618530273 -27 C-17.32945832360383 -27, -5.633917028677388 -27, 29.024999618530273 -27 M29.024999618530273 -27 C29.024999618530273 -27, 29.024999618530273 -27, 29.024999618530273 -27 M29.024999618530273 -27 C29.024999618530273 -27, 29.024999618530273 -27, 29.024999618530273 -27 M29.024999618530273 -27 C29.168985193191176 -26.994044712580607, 29.31297076785208 -26.988089425161217, 29.437896345891936 -26.982922465033347 M29.024999618530273 -27 C29.165193688192215 -26.99420153038735, 29.305387757854152 -26.9884030607747, 29.437896345891936 -26.982922465033347 M29.437896345891936 -26.982922465033347 C29.601417783497656 -26.96253953909246, 29.764939221103372 -26.942156613151575, 29.847972569933944 -26.931806517013612 M29.437896345891936 -26.982922465033347 C29.544374753640728 -26.969649945348923, 29.650853161389517 -26.956377425664503, 29.847972569933944 -26.931806517013612 M29.847972569933944 -26.931806517013612 C29.980099987873622 -26.904102310822243, 30.112227405813304 -26.876398104630873, 30.25242705423427 -26.847001329696653 M29.847972569933944 -26.931806517013612 C29.932092975620346 -26.914168322758567, 30.01621338130675 -26.896530128503517, 30.25242705423427 -26.847001329696653 M30.25242705423427 -26.847001329696653 C30.36960839360589 -26.81211493344788, 30.486789732977513 -26.777228537199107, 30.64849696455369 -26.729086208503173 M30.25242705423427 -26.847001329696653 C30.35195176723036 -26.81737153887206, 30.45147648022645 -26.787741748047463, 30.64849696455369 -26.729086208503173 M30.64849696455369 -26.729086208503173 C30.79095521483197 -26.673498826750674, 30.933413465110252 -26.617911444998175, 31.03347674179512 -26.578866633275286 M30.64849696455369 -26.729086208503173 C30.746082979069847 -26.691008027478077, 30.843668993586004 -26.652929846452984, 31.03347674179512 -26.578866633275286 M31.03347674179512 -26.578866633275286 C31.154595831964517 -26.51965511811218, 31.27571492213392 -26.46044360294907, 31.404736583715643 -26.397368756032446 M31.03347674179512 -26.578866633275286 C31.145065237447522 -26.524314341864333, 31.256653733099924 -26.46976205045338, 31.404736583715643 -26.397368756032446 M31.404736583715643 -26.397368756032446 C31.5019183462085 -26.339460994813003, 31.599100108701357 -26.28155323359356, 31.75974040914241 -26.185832391312644 M31.404736583715643 -26.397368756032446 C31.494359516128927 -26.34396507990179, 31.583982448542216 -26.290561403771132, 31.75974040914241 -26.185832391312644 M31.75974040914241 -26.185832391312644 C31.866073050972187 -26.109912344286005, 31.972405692801964 -26.03399229725937, 32.096063181978614 -25.94570254698197 M31.75974040914241 -26.185832391312644 C31.854931362975787 -26.117867356614177, 31.95012231680916 -26.049902321915713, 32.096063181978614 -25.94570254698197 M32.096063181978614 -25.94570254698197 C32.193547448859924 -25.863137584595247, 32.291031715741234 -25.780572622208524, 32.41140747665898 -25.678619553365657 M32.096063181978614 -25.94570254698197 C32.17184593403567 -25.881517830069942, 32.24762868609273 -25.81733311315792, 32.41140747665898 -25.678619553365657 M32.41140747665898 -25.678619553365657 C32.52151965422913 -25.5685073757955, 32.63163183179929 -25.45839519822535, 32.70361917189593 -25.386407858128706 M32.41140747665898 -25.678619553365657 C32.51156975601741 -25.578457274007224, 32.611732035375844 -25.478294994648795, 32.70361917189593 -25.386407858128706 M32.70361917189593 -25.386407858128706 C32.799195191418654 -25.27356146511557, 32.894771210941386 -25.160715072102434, 32.97070216551224 -25.07106356344834 M32.70361917189593 -25.386407858128706 C32.77819824598931 -25.298352511738223, 32.85277732008269 -25.21029716534774, 32.97070216551224 -25.07106356344834 M32.97070216551224 -25.07106356344834 C33.0265978638453 -24.992776766963757, 33.08249356217836 -24.914489970479174, 33.21083200984292 -24.734740790612136 M32.97070216551224 -25.07106356344834 C33.031577072897136 -24.985802950778965, 33.092451980282036 -24.900542338109588, 33.21083200984292 -24.734740790612136 M33.21083200984292 -24.734740790612136 C33.290402066719885 -24.60120500531978, 33.36997212359685 -24.467669220027428, 33.42236837456272 -24.37973696518537 M33.21083200984292 -24.734740790612136 C33.260445176705794 -24.65147915353528, 33.31005834356867 -24.568217516458425, 33.42236837456272 -24.37973696518537 M33.42236837456272 -24.37973696518537 C33.462989335136115 -24.29664546224201, 33.5036102957095 -24.213553959298654, 33.60386625180556 -24.008477123264846 M33.42236837456272 -24.37973696518537 C33.474067469662444 -24.273984775872012, 33.525766564762165 -24.168232586558656, 33.60386625180556 -24.008477123264846 M33.60386625180556 -24.008477123264846 C33.64107210482125 -23.9131266938396, 33.67827795783694 -23.817776264414356, 33.75408582703345 -23.623497346023417 M33.60386625180556 -24.008477123264846 C33.65907531305072 -23.86698842535297, 33.71428437429587 -23.7254997274411, 33.75408582703345 -23.623497346023417 M33.75408582703345 -23.623497346023417 C33.793035538325185 -23.492667572011875, 33.83198524961693 -23.361837798000334, 33.872000948226926 -23.227427435703994 M33.75408582703345 -23.623497346023417 C33.79227458061641 -23.49522358389927, 33.83046333419936 -23.36694982177513, 33.872000948226926 -23.227427435703994 M33.872000948226926 -23.227427435703994 C33.89570709957314 -23.114367615652643, 33.91941325091935 -23.00130779560129, 33.956806135543886 -22.82297295140367 M33.872000948226926 -23.227427435703994 C33.90576848495337 -23.066382668457138, 33.939536021679814 -22.905337901210284, 33.956806135543886 -22.82297295140367 M33.956806135543886 -22.82297295140367 C33.976521142438884 -22.664809875149214, 33.99623614933389 -22.506646798894757, 34.00792208356362 -22.412896727361662 M33.956806135543886 -22.82297295140367 C33.974359984435985 -22.68214770312114, 33.991913833328084 -22.541322454838603, 34.00792208356362 -22.412896727361662 M34.00792208356362 -22.412896727361662 C34.01218878030653 -22.30973751116145, 34.01645547704944 -22.20657829496124, 34.02499961853027 -22 M34.00792208356362 -22.412896727361662 C34.013120327376846 -22.28721477954538, 34.01831857119007 -22.161532831729097, 34.02499961853027 -22 M34.02499961853027 -22 C34.02499961853027 -22, 34.02499961853027 -22, 34.02499961853027 -22 M34.02499961853027 -22 C34.02499961853027 -22, 34.02499961853027 -22, 34.02499961853027 -22 M34.02499961853027 -22 C34.02499961853027 -12.573126116572357, 34.02499961853027 -3.1462522331447147, 34.02499961853027 22 M34.02499961853027 -22 C34.02499961853027 -5.391371586385667, 34.02499961853027 11.217256827228667, 34.02499961853027 22 M34.02499961853027 22 C34.02499961853027 22, 34.02499961853027 22, 34.02499961853027 22 M34.02499961853027 22 C34.02499961853027 22, 34.02499961853027 22, 34.02499961853027 22 M34.02499961853027 22 C34.018531470113395 22.15638541034371, 34.012063321696516 22.312770820687422, 34.00792208356362 22.412896727361662 M34.02499961853027 22 C34.018607949023284 22.154536320784327, 34.0122162795163 22.309072641568658, 34.00792208356362 22.412896727361662 M34.00792208356362 22.412896727361662 C33.993877875444014 22.52556598340532, 33.9798336673244 22.638235239448974, 33.956806135543886 22.82297295140367 M34.00792208356362 22.412896727361662 C33.99154772572288 22.544259542580345, 33.975173367882135 22.675622357799032, 33.956806135543886 22.82297295140367 M33.956806135543886 22.82297295140367 C33.92693694851828 22.96542563639993, 33.89706776149267 23.107878321396193, 33.872000948226926 23.227427435703994 M33.956806135543886 22.82297295140367 C33.92473631625696 22.975920932908846, 33.89266649697004 23.12886891441402, 33.872000948226926 23.227427435703994 M33.872000948226926 23.227427435703994 C33.83127229322517 23.364232576306005, 33.79054363822341 23.50103771690802, 33.75408582703345 23.623497346023417 M33.872000948226926 23.227427435703994 C33.83648487485818 23.34672382323834, 33.80096880148944 23.466020210772683, 33.75408582703345 23.623497346023417 M33.75408582703345 23.623497346023417 C33.72136854970689 23.707344541823417, 33.688651272380326 23.79119173762342, 33.60386625180556 24.008477123264846 M33.75408582703345 23.623497346023417 C33.69942056728697 23.763592400134172, 33.644755307540485 23.903687454244928, 33.60386625180556 24.008477123264846 M33.60386625180556 24.008477123264846 C33.54390183261465 24.131136303239096, 33.48393741342374 24.25379548321334, 33.42236837456272 24.379736965185366 M33.60386625180556 24.008477123264846 C33.531718885557176 24.156056919763067, 33.459571519308795 24.303636716261288, 33.42236837456272 24.379736965185366 M33.42236837456272 24.379736965185366 C33.35940450358545 24.48540397468615, 33.296440632608174 24.59107098418694, 33.21083200984292 24.734740790612133 M33.42236837456272 24.379736965185366 C33.37700942728851 24.455859100596946, 33.33165048001431 24.531981236008523, 33.21083200984292 24.734740790612133 M33.21083200984292 24.734740790612133 C33.15124196365344 24.818201843209515, 33.09165191746396 24.901662895806894, 32.97070216551224 25.07106356344834 M33.21083200984292 24.734740790612133 C33.12563619485135 24.854064953803384, 33.04044037985979 24.973389116994635, 32.97070216551224 25.07106356344834 M32.97070216551224 25.07106356344834 C32.88070931720887 25.177317918659266, 32.790716468905494 25.283572273870192, 32.70361917189593 25.386407858128706 M32.97070216551224 25.07106356344834 C32.896535333458544 25.15863217658232, 32.82236850140484 25.246200789716294, 32.70361917189593 25.386407858128706 M32.70361917189593 25.386407858128706 C32.59614033991469 25.493886690109946, 32.48866150793345 25.601365522091182, 32.41140747665898 25.678619553365657 M32.70361917189593 25.386407858128706 C32.62395489285735 25.466072137167284, 32.544290613818774 25.545736416205866, 32.41140747665898 25.678619553365657 M32.41140747665898 25.678619553365657 C32.315448232383964 25.759892887491166, 32.21948898810895 25.84116622161667, 32.096063181978614 25.94570254698197 M32.41140747665898 25.678619553365657 C32.34637945926145 25.733695474663268, 32.28135144186392 25.78877139596088, 32.096063181978614 25.94570254698197 M32.096063181978614 25.94570254698197 C32.00868128054768 26.008092025431438, 31.92129937911674 26.070481503880902, 31.75974040914241 26.185832391312644 M32.096063181978614 25.94570254698197 C31.98787612808076 26.022946618776473, 31.879689074182902 26.100190690570976, 31.75974040914241 26.185832391312644 M31.75974040914241 26.185832391312644 C31.63044943127204 26.262873091978015, 31.501158453401676 26.33991379264339, 31.404736583715643 26.397368756032446 M31.75974040914241 26.185832391312644 C31.640483587775762 26.25689403249246, 31.52122676640911 26.32795567367228, 31.404736583715643 26.397368756032446 M31.404736583715643 26.397368756032446 C31.262967512454356 26.466675431808387, 31.121198441193073 26.535982107584324, 31.03347674179512 26.578866633275286 M31.404736583715643 26.397368756032446 C31.295446712108504 26.45079731862146, 31.186156840501365 26.504225881210473, 31.03347674179512 26.578866633275286 M31.03347674179512 26.578866633275286 C30.906124824994542 26.628559505413456, 30.778772908193968 26.678252377551626, 30.64849696455369 26.729086208503173 M31.03347674179512 26.578866633275286 C30.893419973851802 26.633516953712874, 30.75336320590848 26.688167274150466, 30.64849696455369 26.729086208503173 M30.64849696455369 26.729086208503173 C30.566779710449755 26.753414489117805, 30.485062456345823 26.77774276973244, 30.25242705423427 26.847001329696653 M30.64849696455369 26.729086208503173 C30.55066933463733 26.758210755804317, 30.45284170472097 26.787335303105465, 30.25242705423427 26.847001329696653 M30.25242705423427 26.847001329696653 C30.13411025349004 26.87180975398008, 30.015793452745807 26.89661817826351, 29.847972569933944 26.931806517013612 M30.25242705423427 26.847001329696653 C30.161261181117748 26.866116803122384, 30.070095308001225 26.885232276548116, 29.847972569933944 26.931806517013612 M29.847972569933944 26.931806517013612 C29.697116919628062 26.95061065421404, 29.546261269322184 26.969414791414465, 29.437896345891936 26.982922465033347 M29.847972569933944 26.931806517013612 C29.76542983095237 26.942095458697676, 29.6828870919708 26.952384400381735, 29.437896345891936 26.982922465033347 M29.437896345891936 26.982922465033347 C29.350202254787416 26.98654951947085, 29.262508163682895 26.990176573908347, 29.024999618530273 27 M29.437896345891936 26.982922465033347 C29.28797721524458 26.98912316614367, 29.138058084597226 26.995323867253994, 29.024999618530273 27 M29.024999618530273 27 C29.024999618530273 27, 29.024999618530273 27, 29.024999618530273 27 M29.024999618530273 27 C29.024999618530273 27, 29.024999618530273 27, 29.024999618530273 27 M29.024999618530273 27 C13.460623155986582 27, -2.1037533065571097 27, -29.024999618530273 27 M29.024999618530273 27 C8.72317902245841 27, -11.578641573613453 27, -29.024999618530273 27 M-29.024999618530273 27 C-29.024999618530273 27, -29.024999618530273 27, -29.024999618530273 27 M-29.024999618530273 27 C-29.024999618530273 27, -29.024999618530273 27, -29.024999618530273 27 M-29.024999618530273 27 C-29.15528538499726 26.994611340838873, -29.28557115146425 26.989222681677745, -29.437896345891936 26.982922465033347 M-29.024999618530273 27 C-29.12961625884972 26.99567302374963, -29.234232899169168 26.991346047499263, -29.437896345891936 26.982922465033347 M-29.437896345891936 26.982922465033347 C-29.600237337005783 26.962686681594224, -29.762578328119627 26.9424508981551, -29.847972569933944 26.931806517013612 M-29.437896345891936 26.982922465033347 C-29.56581336941068 26.966977624680073, -29.693730392929425 26.9510327843268, -29.847972569933944 26.931806517013612 M-29.847972569933944 26.931806517013612 C-29.94898932683616 26.910625530465612, -30.05000608373837 26.88944454391761, -30.252427054234268 26.847001329696653 M-29.847972569933944 26.931806517013612 C-29.999926226510382 26.899945185739824, -30.15187988308682 26.868083854466036, -30.252427054234268 26.847001329696653 M-30.252427054234268 26.847001329696653 C-30.37610040638443 26.81018217750347, -30.49977375853459 26.773363025310292, -30.64849696455369 26.729086208503173 M-30.252427054234268 26.847001329696653 C-30.33166967287253 26.823409779980384, -30.410912291510787 26.799818230264112, -30.64849696455369 26.729086208503173 M-30.64849696455369 26.729086208503173 C-30.745682641788232 26.69116423957011, -30.842868319022774 26.653242270637044, -31.03347674179512 26.578866633275286 M-30.64849696455369 26.729086208503173 C-30.73147601812402 26.696707681325808, -30.81445507169435 26.664329154148444, -31.03347674179512 26.578866633275286 M-31.03347674179512 26.578866633275286 C-31.125620252477734 26.53382041576874, -31.21776376316035 26.488774198262195, -31.404736583715643 26.397368756032446 M-31.03347674179512 26.578866633275286 C-31.12270596349298 26.535245124839534, -31.21193518519084 26.49162361640378, -31.404736583715643 26.397368756032446 M-31.404736583715643 26.397368756032446 C-31.523279346695602 26.326732601296712, -31.641822109675562 26.25609644656098, -31.759740409142406 26.185832391312644 M-31.404736583715643 26.397368756032446 C-31.533901485599454 26.320403180348734, -31.663066387483262 26.243437604665022, -31.759740409142406 26.185832391312644 M-31.759740409142406 26.185832391312644 C-31.853664602630598 26.11877180611645, -31.947588796118787 26.051711220920254, -32.096063181978614 25.94570254698197 M-31.759740409142406 26.185832391312644 C-31.861472415923494 26.113197134574655, -31.963204422704585 26.04056187783667, -32.096063181978614 25.94570254698197 M-32.096063181978614 25.94570254698197 C-32.21440423607296 25.84547278691206, -32.33274529016731 25.74524302684215, -32.41140747665898 25.67861955336566 M-32.096063181978614 25.94570254698197 C-32.21258810790409 25.847010969008, -32.32911303382956 25.74831939103403, -32.41140747665898 25.67861955336566 M-32.41140747665898 25.67861955336566 C-32.476613868214734 25.613413161809905, -32.54182025977048 25.548206770254154, -32.70361917189593 25.386407858128706 M-32.41140747665898 25.67861955336566 C-32.48531702826726 25.604710001757375, -32.55922657987554 25.530800450149094, -32.70361917189593 25.386407858128706 M-32.70361917189593 25.386407858128706 C-32.79559447887004 25.277812818388256, -32.88756978584416 25.169217778647806, -32.97070216551224 25.07106356344834 M-32.70361917189593 25.386407858128706 C-32.760119220529916 25.31969837676245, -32.8166192691639 25.252988895396197, -32.97070216551224 25.07106356344834 M-32.97070216551224 25.07106356344834 C-33.0601013831823 24.94585216850496, -33.149500600852356 24.82064077356158, -33.21083200984292 24.734740790612133 M-32.97070216551224 25.07106356344834 C-33.0462260904576 24.965285725113013, -33.12175001540297 24.859507886777685, -33.21083200984292 24.734740790612133 M-33.21083200984292 24.734740790612133 C-33.26148173613386 24.64973958236162, -33.31213146242481 24.564738374111105, -33.422368374562716 24.37973696518537 M-33.21083200984292 24.734740790612133 C-33.28213949298537 24.615071393198328, -33.35344697612782 24.495401995784523, -33.422368374562716 24.37973696518537 M-33.422368374562716 24.37973696518537 C-33.4861040463616 24.249363564701497, -33.54983971816049 24.11899016421762, -33.603866251805556 24.00847712326485 M-33.422368374562716 24.37973696518537 C-33.48694942569615 24.247634313633252, -33.55153047682958 24.115531662081136, -33.603866251805556 24.00847712326485 M-33.603866251805556 24.00847712326485 C-33.65801638104164 23.869702235509536, -33.712166510277726 23.730927347754218, -33.75408582703345 23.623497346023417 M-33.603866251805556 24.00847712326485 C-33.64115652200958 23.912910351127195, -33.67844679221361 23.81734357898954, -33.75408582703345 23.623497346023417 M-33.75408582703345 23.623497346023417 C-33.77867761500775 23.540894986300664, -33.80326940298205 23.45829262657791, -33.872000948226926 23.227427435703994 M-33.75408582703345 23.623497346023417 C-33.78050454700903 23.534758429881236, -33.80692326698461 23.446019513739056, -33.872000948226926 23.227427435703994 M-33.872000948226926 23.227427435703994 C-33.904087350995354 23.07440036394891, -33.936173753763775 22.921373292193824, -33.956806135543886 22.82297295140367 M-33.872000948226926 23.227427435703994 C-33.905252751863905 23.068842312346103, -33.93850455550088 22.91025718898821, -33.956806135543886 22.82297295140367 M-33.956806135543886 22.82297295140367 C-33.967389965088216 22.738064483037455, -33.97797379463255 22.65315601467124, -34.00792208356362 22.412896727361662 M-33.956806135543886 22.82297295140367 C-33.968562521751934 22.72865768089916, -33.98031890795998 22.634342410394652, -34.00792208356362 22.412896727361662 M-34.00792208356362 22.412896727361662 C-34.012133417670704 22.31107605628489, -34.01634475177779 22.20925538520812, -34.02499961853027 22 M-34.00792208356362 22.412896727361662 C-34.011490572077754 22.32661862973281, -34.01505906059189 22.240340532103957, -34.02499961853027 22 M-34.02499961853027 22 C-34.02499961853027 22, -34.02499961853027 22, -34.02499961853027 22 M-34.02499961853027 22 C-34.02499961853027 22, -34.02499961853027 22, -34.02499961853027 22 M-34.02499961853027 22 C-34.02499961853027 7.317843951017208, -34.02499961853027 -7.364312097965584, -34.02499961853027 -22 M-34.02499961853027 22 C-34.02499961853027 4.612022981573926, -34.02499961853027 -12.775954036852148, -34.02499961853027 -22 M-34.02499961853027 -22 C-34.02499961853027 -22, -34.02499961853027 -22, -34.02499961853027 -22 M-34.02499961853027 -22 C-34.02499961853027 -22, -34.02499961853027 -22, -34.02499961853027 -22 M-34.02499961853027 -22 C-34.020446185140926 -22.11009186913633, -34.015892751751586 -22.220183738272656, -34.00792208356362 -22.41289672736166 M-34.02499961853027 -22 C-34.01822561038265 -22.163780416830424, -34.01145160223503 -22.327560833660847, -34.00792208356362 -22.41289672736166 M-34.00792208356362 -22.41289672736166 C-33.99363481149376 -22.527515956961114, -33.979347539423905 -22.642135186560566, -33.956806135543886 -22.82297295140367 M-34.00792208356362 -22.41289672736166 C-33.99003431791558 -22.556400813222808, -33.97214655226753 -22.699904899083958, -33.956806135543886 -22.82297295140367 M-33.956806135543886 -22.82297295140367 C-33.92947108614385 -22.95333977987483, -33.90213603674382 -23.083706608345988, -33.872000948226926 -23.227427435703994 M-33.956806135543886 -22.82297295140367 C-33.92885543886212 -22.956275936396874, -33.90090474218035 -23.08957892139008, -33.872000948226926 -23.227427435703994 M-33.872000948226926 -23.227427435703994 C-33.83972326107421 -23.335846275683963, -33.8074455739215 -23.44426511566393, -33.75408582703345 -23.623497346023417 M-33.872000948226926 -23.227427435703994 C-33.82552617611793 -23.383533443440886, -33.77905140400894 -23.539639451177777, -33.75408582703345 -23.623497346023417 M-33.75408582703345 -23.623497346023417 C-33.70736428166231 -23.743234404939148, -33.660642736291166 -23.862971463854876, -33.60386625180556 -24.008477123264846 M-33.75408582703345 -23.623497346023417 C-33.72362862207239 -23.701552472750528, -33.69317141711133 -23.779607599477636, -33.60386625180556 -24.008477123264846 M-33.60386625180556 -24.008477123264846 C-33.558949271776235 -24.100356274462435, -33.5140322917469 -24.192235425660023, -33.42236837456272 -24.379736965185366 M-33.60386625180556 -24.008477123264846 C-33.53910679972564 -24.140944699785774, -33.47434734764572 -24.2734122763067, -33.42236837456272 -24.379736965185366 M-33.42236837456272 -24.379736965185366 C-33.3420077891974 -24.514599428459753, -33.261647203832084 -24.64946189173414, -33.21083200984292 -24.734740790612133 M-33.42236837456272 -24.379736965185366 C-33.35643105570574 -24.490394064089465, -33.29049373684876 -24.601051162993567, -33.21083200984292 -24.734740790612133 M-33.21083200984292 -24.734740790612133 C-33.13228019217807 -24.84475945656348, -33.05372837451323 -24.954778122514824, -32.97070216551224 -25.07106356344834 M-33.21083200984292 -24.734740790612133 C-33.15866532896037 -24.807804773196157, -33.10649864807782 -24.88086875578018, -32.97070216551224 -25.07106356344834 M-32.97070216551224 -25.07106356344834 C-32.885574810384384 -25.17157324172222, -32.800447455256524 -25.2720829199961, -32.70361917189593 -25.386407858128706 M-32.97070216551224 -25.07106356344834 C-32.8866674487929 -25.170283165991044, -32.802632732073555 -25.269502768533744, -32.70361917189593 -25.386407858128706 M-32.70361917189593 -25.386407858128706 C-32.61537169926121 -25.474655330763426, -32.52712422662649 -25.562902803398146, -32.41140747665898 -25.678619553365657 M-32.70361917189593 -25.386407858128706 C-32.629389303178016 -25.46063772684662, -32.5551594344601 -25.534867595564535, -32.41140747665898 -25.678619553365657 M-32.41140747665898 -25.678619553365657 C-32.304520329291066 -25.769148349287164, -32.197633181923145 -25.859677145208675, -32.096063181978614 -25.945702546981966 M-32.41140747665898 -25.678619553365657 C-32.28595333420029 -25.78487379196983, -32.16049919174161 -25.891128030574006, -32.096063181978614 -25.945702546981966 M-32.096063181978614 -25.945702546981966 C-32.003592187396094 -26.01172556810227, -31.91112119281357 -26.077748589222573, -31.75974040914241 -26.185832391312644 M-32.096063181978614 -25.945702546981966 C-31.980626955474516 -26.02812242853441, -31.865190728970422 -26.110542310086856, -31.75974040914241 -26.185832391312644 M-31.75974040914241 -26.185832391312644 C-31.675186680857415 -26.23621547741999, -31.59063295257242 -26.28659856352733, -31.40473658371564 -26.397368756032446 M-31.75974040914241 -26.185832391312644 C-31.628982447078844 -26.263747224821394, -31.498224485015278 -26.341662058330147, -31.40473658371564 -26.397368756032446 M-31.40473658371564 -26.397368756032446 C-31.2691832130454 -26.46363676094914, -31.133629842375164 -26.529904765865833, -31.033476741795123 -26.578866633275286 M-31.40473658371564 -26.397368756032446 C-31.312212070208684 -26.442601234470107, -31.219687556701725 -26.48783371290777, -31.033476741795123 -26.578866633275286 M-31.033476741795123 -26.578866633275286 C-30.91071691455831 -26.626767666505398, -30.787957087321498 -26.67466869973551, -30.648496964553694 -26.729086208503173 M-31.033476741795123 -26.578866633275286 C-30.88539696881505 -26.63664753999278, -30.73731719583498 -26.694428446710273, -30.648496964553694 -26.729086208503173 M-30.648496964553694 -26.729086208503173 C-30.557502920489657 -26.756176309149907, -30.466508876425618 -26.78326640979664, -30.252427054234268 -26.847001329696653 M-30.648496964553694 -26.729086208503173 C-30.494404152745965 -26.774961626215916, -30.340311340938232 -26.82083704392866, -30.252427054234268 -26.847001329696653 M-30.252427054234268 -26.847001329696653 C-30.14757803415251 -26.868985857333712, -30.04272901407075 -26.89097038497077, -29.847972569933948 -26.931806517013612 M-30.252427054234268 -26.847001329696653 C-30.156874991191227 -26.867036490436448, -30.061322928148186 -26.88707165117624, -29.847972569933948 -26.931806517013612 M-29.847972569933948 -26.931806517013612 C-29.733468028139413 -26.946079493263493, -29.61896348634488 -26.960352469513378, -29.437896345891936 -26.982922465033347 M-29.847972569933948 -26.931806517013612 C-29.744733687523542 -26.94467523028572, -29.641494805113133 -26.95754394355783, -29.437896345891936 -26.982922465033347 M-29.437896345891936 -26.982922465033347 C-29.31399337387744 -26.988047129863148, -29.19009040186295 -26.993171794692948, -29.024999618530273 -27 M-29.437896345891936 -26.982922465033347 C-29.34640581718715 -26.98670654129149, -29.254915288482366 -26.99049061754963, -29.024999618530273 -27 M-29.024999618530273 -27 C-29.024999618530273 -27, -29.024999618530273 -27, -29.024999618530273 -27 M-29.024999618530273 -27 C-29.024999618530273 -27, -29.024999618530273 -27, -29.024999618530273 -27" stroke="#ccc" stroke-width="1.3" fill="none" stroke-dasharray="0 0" style=""/></g><g class="label" style="" transform="translate(-19.024999618530273, -12)"><rect/><foreignObject width="38.04999923706055" height="24"><div xmlns="http://www.w3.org/1999/xhtml" style="display: table-cell; white-space: nowrap; line-height: 1.5; max-width: 200px; text-align: center;"><span class="nodeLabel"><p>Inicio</p></span></div></foreignObject></g></g><g class="node default" id="flowchart-B-1" transform="translate(81.125, 187)"><rect class="basic label-container" style="" x="-69.125" y="-27" width="138.25" height="54"/><g class="label" style="" transform="translate(-39.125, -12)"><rect/><foreignObject width="78.25" height="24"><div xmlns="http://www.w3.org/1999/xhtml" style="display: table-cell; white-space: nowrap; line-height: 1.5; max-width: 200px; text-align: center;"><span class="nodeLabel"><p>Aguarda_N</p></span></div></foreignObject></g></g><g class="node default" id="flowchart-C-3" transform="translate(81.125, 354.1875)"><circle class="basic label-container" style="" r="46.1875" cx="0" cy="0"/><g class="label" style="" transform="translate(-38.6875, -12)"><rect/><foreignObject width="77.375" height="24"><div xmlns="http://www.w3.org/1999/xhtml" style="display: table-cell; white-space: nowrap; line-height: 1.5; max-width: 200px; text-align: center;"><span class="nodeLabel"><p>Nova Linha</p></span></div></foreignObject></g></g></g><g class="edges edgePaths"><path d="M81.125,66L81.125,156" id="L_A_B_0_0" class="edge-thickness-normal edge-pattern-solid edge-thickness-normal edge-pattern-solid flowchart-link" style="" marker-end="url(#mermaid-c89b1420-bbc8-4efd-b8eb-e672cbdb820e_flowchart-v2-pointEnd)"/><path d="M81.125,214L81.125,304" id="L_B_C_0_0" class="edge-thickness-normal edge-pattern-solid edge-thickness-normal edge-pattern-solid flowchart-link" style="" marker-end="url(#mermaid-c89b1420-bbc8-4efd-b8eb-e672cbdb820e_flowchart-v2-pointEnd)"/></g><g class="edgeLabels"><g class="edgeLabel" transform="translate(80.86875009536743, 113)"><g class="label" transform="translate(-3.2437500953674316, -12)"><foreignObject width="6.487500190734863" height="24"><div xmlns="http://www.w3.org/1999/xhtml" class="labelBkg" style="display: table-cell; white-space: nowrap; line-height: 1.5; max-width: 200px; text-align: center;"><span class="edgeLabel"><p>\</p></span></div></foreignObject></g></g><g class="edgeLabel" transform="translate(81.0750002861023, 261)"><g class="label" transform="translate(-4.450000286102295, -12)"><foreignObject width="8.90000057220459" height="24"><div xmlns="http://www.w3.org/1999/xhtml" class="labelBkg" style="display: table-cell; white-space: nowrap; line-height: 1.5; max-width: 200px; text-align: center;"><span class="edgeLabel"><p>n</p></span></div></foreignObject></g></g></g></svg>